<?xml version="1.0"?>
<svg xmlns="http://www.w3.org/2000/svg" xmlns:lc="https://librecad.org" xmlns:xlink="http://www.w3.org/1999/xlink" width="532.70945716mm" height="99.25mm" viewBox="0 0 532.70945716 99.25">
    <g lc:layername="0" lc:is_locked="false" lc:is_construction="false" fill="none" stroke="black" stroke-width="1"/>
    <g lc:layername="callouts" lc:is_locked="false" lc:is_construction="false" fill="none" stroke="black" stroke-width="1">
        <line x1="50" y1="20" x2="54.75" y2="22"/>
        <line x1="54.75" y1="22" x2="57" y2="23.75"/>
        <line x1="57" y1="23.75" x2="58.25" y2="27.5"/>
        <line x1="58.25" y1="27.5" x2="63.5" y2="30"/>
        <line x1="63.5" y1="30" x2="69" y2="32.75"/>
        <line x1="69" y1="32.75" x2="71" y2="34.75"/>
        <line x1="71" y1="34.75" x2="74" y2="40.75"/>
        <line x1="74" y1="40.75" x2="78" y2="44.25"/>
        <line x1="78" y1="44.25" x2="81.25" y2="43.25"/>
        <line x1="81.25" y1="43.25" x2="86.75" y2="47"/>
        <line x1="86.75" y1="47" x2="90.25" y2="51"/>
        <line x1="90.25" y1="51" x2="92.75" y2="53.75"/>
        <line x1="92.75" y1="53.75" x2="97" y2="56.75"/>
        <line x1="97" y1="56.75" x2="99.25" y2="61"/>
        <line x1="99.25" y1="61" x2="111.25" y2="65"/>
        <line x1="111.25" y1="65" x2="118.75" y2="68"/>
        <line x1="118.75" y1="68" x2="124" y2="74.25"/>
        <line x1="124" y1="74.25" x2="128.75" y2="79.75"/>
        <line x1="128.75" y1="79.75" x2="135" y2="85.75"/>
        <line x1="135" y1="85.75" x2="142.75" y2="86.25"/>
        <line x1="142.75" y1="86.25" x2="149.5" y2="87.25"/>
        <line x1="149.5" y1="87.25" x2="154.5" y2="91"/>
        <line x1="154.5" y1="91" x2="158" y2="93"/>
        <line x1="158" y1="93" x2="170" y2="99.25"/>
        <line x1="170" y1="99.25" x2="183.5" y2="97.75"/>
        <line x1="183.5" y1="97.75" x2="193" y2="96.25"/>
        <line x1="193" y1="96.25" x2="201" y2="94"/>
        <line x1="201" y1="94" x2="208.75" y2="92.75"/>
        <line x1="208.75" y1="92.75" x2="225" y2="96"/>
        <line x1="225" y1="96" x2="242.75" y2="94"/>
        <line x1="242.75" y1="94" x2="264.5" y2="90.75"/>
        <line x1="264.5" y1="90.75" x2="267.5" y2="88"/>
        <line x1="267.5" y1="88" x2="268" y2="85.25"/>
        <line x1="268" y1="85.25" x2="285.5" y2="78"/>
        <line x1="285.5" y1="78" x2="292.25" y2="75.25"/>
        <line x1="292.25" y1="75.25" x2="301" y2="70.75"/>
        <line x1="301" y1="70.75" x2="322.83183796" y2="60.72558535"/>
        <line x1="322.83183796" y1="60.72558535" x2="359.59937508" y2="59.05433366"/>
        <line x1="359.59937508" y1="59.05433366" x2="371.2981369" y2="54.45839152"/>
        <line x1="371.2981369" y1="54.45839152" x2="396.78472513" y2="48.60901061"/>
        <line x1="396.78472513" y1="48.60901061" x2="412.24380324" y2="45.26650724"/>
        <line x1="412.24380324" y1="45.26650724" x2="429.79194595" y2="40.6705651"/>
        <line x1="429.79194595" y1="40.6705651" x2="437.73039147" y2="32.73211958"/>
        <line x1="437.73039147" y1="32.73211958" x2="478.05151608" y2="25.6897655"/>
        <line x1="478.05151608" y1="25.6897655" x2="484.80699195" y2="20.77669215"/>
        <line x1="484.80699195" y1="20.77669215" x2="485.42112612" y2="20.16255798"/>
        <line x1="485.42112612" y1="20.16255798" x2="513.05716374" y2="12.79294794"/>
        <line x1="513.05716374" y1="12.79294794" x2="519.8126396" y2="6.65160625"/>
        <line x1="519.8126396" y1="6.65160625" x2="532.70945716" y2="0.51026455"/>
        <line x1="50" y1="20" x2="30.96184075" y2="14.63535045"/>
        <line x1="30.96184075" y1="14.63535045" x2="22.97809655" y2="9.10814293"/>
        <line x1="22.97809655" y1="9.10814293" x2="0" y2="0"/>
        <line x1="97" y1="60" x2="90" y2="60"/>
        <line x1="118" y1="70" x2="90" y2="70"/>
        <line x1="94" y1="60" x2="94" y2="62"/>
        <line x1="94" y1="70" x2="94" y2="68"/>
    </g>
    <g lc:layername="water" lc:is_locked="false" lc:is_construction="false" fill="none" stroke="black" stroke-width="1">
        <line x1="120.43" y1="70" x2="302.63339996" y2="70"/>
        <line x1="57.41666667" y1="25" x2="478.99994365" y2="25"/>
        <line x1="63.5" y1="30" x2="453.37319115" y2="30"/>
        <line x1="73.625" y1="40" x2="430.46251105" y2="40"/>
        <line x1="98.72058824" y1="60" x2="338.7947156" y2="60"/>
        <line x1="153" y1="70" x2="150" y2="66"/>
        <line x1="150" y1="66" x2="155" y2="66"/>
        <line x1="155" y1="66" x2="156" y2="66"/>
        <line x1="156" y1="66" x2="153" y2="70"/>
        <line x1="153" y1="70" x2="151" y2="70.5"/>
        <line x1="151" y1="70.5" x2="155" y2="70.5"/>
        <line x1="155" y1="70.5" x2="151.5" y2="71.5"/>
        <line x1="151.5" y1="71.5" x2="154.5" y2="71.5"/>
        <line x1="154.5" y1="71.5" x2="152.4" y2="72.5"/>
        <line x1="152.4" y1="72.5" x2="153.6" y2="72.5"/>
        <line x1="153" y1="25" x2="150" y2="21"/>
        <line x1="150" y1="21" x2="155" y2="21"/>
        <line x1="155" y1="21" x2="156" y2="21"/>
        <line x1="156" y1="21" x2="153" y2="25"/>
        <line x1="153" y1="25" x2="151" y2="25.5"/>
        <line x1="151" y1="25.5" x2="155" y2="25.5"/>
        <line x1="155" y1="25.5" x2="151.5" y2="26.5"/>
        <line x1="151.5" y1="26.5" x2="154.5" y2="26.5"/>
        <line x1="154.5" y1="26.5" x2="152.4" y2="27.5"/>
        <line x1="152.4" y1="27.5" x2="153.6" y2="27.5"/>
        <line x1="89.375" y1="50" x2="390.72398566" y2="50"/>
    </g>
</svg>
